<svg xmlns="http://www.w3.org/2000/svg" width="24" height="24" fill="none" viewBox="0 0 24 24">
  <path stroke="#000" stroke-linecap="round" stroke-linejoin="round" stroke-miterlimit="10" stroke-width="1.5" d="M6.9 20.6c1.5.9 3.3 1.4 5.1 1.4 5.5 0 10-4.5 10-10S17.5 2 12 2 2 6.5 2 12c0 1.8.5 3.5 1.3 5l-.86 3.306a1 1 0 0 0 1.243 1.213L6.9 20.6Z"/>
  <path stroke="#000" stroke-miterlimit="10" stroke-width="1.5" d="M16.5 14.848c0 .162-.036.329-.113.491a2.033 2.033 0 0 1-1.046.99c-.27.113-.563.171-.878.171-.46 0-.951-.108-1.47-.328a7.92 7.92 0 0 1-1.55-.892 12.947 12.947 0 0 1-1.478-1.26 12.76 12.76 0 0 1-1.257-1.471 8.018 8.018 0 0 1-.884-1.534C7.608 10.5 7.5 10.01 7.5 9.543c0-.306.054-.598.162-.868.108-.275.28-.527.519-.752.288-.284.603-.423.937-.423a.85.85 0 0 1 .365.081c.117.054.22.135.302.252l1.046 1.472c.08.112.14.216.18.315.04.094.063.189.063.274a.61.61 0 0 1-.095.32 1.53 1.53 0 0 1-.252.319l-.343.356a.239.239 0 0 0-.072.18c0 .035.005.067.014.103.013.036.027.063.036.09.08.149.22.342.419.576.203.234.419.473.653.711.244.239.478.459.717.662.234.197.428.332.581.413l.082.037a.312.312 0 0 0 .213-.001.247.247 0 0 0 .084-.058l.342-.338c.113-.112.221-.197.325-.252a.6.6 0 0 1 .32-.094.719.719 0 0 1 .275.059c.099.04.203.098.315.175l1.492 1.058c.108.07.194.17.248.287.047.111.071.23.072.351Z"/>
</svg>
